<svg id="frappe-symbols" aria-hidden="true" style="position: absolute; width: 0; height: 0; overflow: hidden;" class="d-block" xmlns="http://www.w3.org/2000/svg">
    <symbol id="icon-rua" viewBox="0 0 24 24" xmlns="http://www.w3.org/2000/svg">
        <path d="M 14.277344 4.808594 C 13.921875 4.867188 13.558594 5.148438 13.414062 5.472656 C 13.320312 5.6875 13.300781 6.085938 13.375 6.332031 C 13.433594 6.515625 13.460938 6.542969 16.167969 9.261719 L 18.90625 12.007812 L 16.25 14.671875 C 14.789062 16.136719 13.5625 17.386719 13.523438 17.449219 C 13.488281 17.511719 13.433594 17.65625 13.40625 17.769531 C 13.269531 18.300781 13.539062 18.875 14.03125 19.109375 C 14.1875 19.179688 14.246094 19.191406 14.542969 19.191406 C 14.863281 19.191406 14.886719 19.183594 15.070312 19.085938 C 15.230469 19 15.792969 18.449219 18.351562 15.886719 C 21.082031 13.148438 21.449219 12.769531 21.515625 12.613281 C 21.585938 12.457031 21.59375 12.390625 21.59375 12.023438 C 21.59375 11.621094 21.589844 11.597656 21.496094 11.421875 C 21.417969 11.265625 20.886719 10.722656 18.285156 8.113281 C 16.039062 5.871094 15.125 4.972656 15.019531 4.917969 C 14.898438 4.855469 14.515625 4.761719 14.445312 4.777344 C 14.4375 4.78125 14.359375 4.792969 14.277344 4.808594 M 9.171875 4.859375 C 9.09375 4.886719 8.96875 4.949219 8.898438 5 C 8.828125 5.050781 7.375 6.492188 5.667969 8.203125 C 2.113281 11.769531 2.410156 11.421875 2.410156 12.039062 C 2.410156 12.375 2.414062 12.421875 2.496094 12.582031 C 2.566406 12.730469 3.101562 13.277344 5.742188 15.914062 C 9.304688 19.476562 8.976562 19.191406 9.523438 19.191406 C 10.050781 19.191406 9.894531 19.320312 12.347656 16.890625 C 15.804688 13.46875 16.835938 12.421875 16.894531 12.277344 C 16.96875 12.105469 16.960938 11.851562 16.882812 11.699219 C 16.84375 11.625 15.90625 10.664062 14.601562 9.363281 C 12.800781 7.566406 12.359375 7.140625 12.261719 7.109375 C 12.097656 7.058594 11.820312 7.089844 11.6875 7.171875 C 11.632812 7.207031 10.582031 8.242188 9.359375 9.46875 C 7.144531 11.6875 7.128906 11.703125 7.078125 11.886719 C 7.03125 12.046875 7.027344 12.101562 7.0625 12.242188 C 7.097656 12.402344 7.136719 12.445312 8.710938 14.023438 C 9.597656 14.914062 10.320312 15.65625 10.320312 15.671875 C 10.320312 15.6875 10.148438 15.875 9.9375 16.085938 L 9.554688 16.46875 L 5.09375 12.007812 L 7.851562 9.246094 C 9.703125 7.390625 10.621094 6.449219 10.652344 6.375 C 10.769531 6.09375 10.746094 5.714844 10.59375 5.410156 C 10.492188 5.210938 10.203125 4.953125 9.984375 4.875 C 9.769531 4.792969 9.382812 4.785156 9.171875 4.859375 M 11.027344 11.03125 L 10.019531 12.039062 L 10.984375 13.007812 L 11.953125 13.972656 L 13.96875 11.957031 L 13 10.992188 L 12.03125 10.023438 Z M 11.027344 11.03125" stroke="var(--icon-stroke)"/>
    </symbol>
</svg>